<svg xmlns="http://www.w3.org/2000/svg" width="361" height="452" fill="none"><path fill="#000" stroke="#fff" stroke-miterlimit="10" d="M180.274 1H1v282.941C1 356.178 37.279 395.309 180.259 451c142.98-55.691 179.259-94.822 179.259-167.059V1H180.259h.015Z"/><path fill="#fff" d="M213.892 317.065c2.9 3.175-3.758 5.852-5.951 6.605-16.287 5.597-47.342 5.539-63.791.614-4.896-1.472-12.854-5.098-4.084-8.841 14.072-6.003 51.298-5.354 66.251-1.518 1.833.475 6.369 1.819 7.587 3.14h-.012Zm-64.255 1.564c3.631 1.518 7.795 2.283 11.716 2.758 10.301 1.252 22.726.997 32.946-.788 3.004-.521 11.67-1.993 3.7-3.824-10.475-2.398-34.906-2.491-45.335 0-1.032.244-2.041.557-3.039.881l.023.95-.011.023Z"/><path fill="#fff" fill-rule="evenodd" d="M133.278 336.914c-7.784 5.898-15.161 15.794-16.055 25.829l.012-.023c-.092 1.005-.052 2.064-.012 3.124.036.957.072 1.914.012 2.832-10.162-4.253-19.49-13.558-18.399-25.354.476-5.145 4.339-10.996 9.791-11.657 5.232-.637 9.153 3.639 6.033 8.401l-2.529 1.379c8.155.649 9.071-10.07 3.236-14.288-8.062-5.828-19.43 1.704-22.725 9.641-7.61 18.355 7.192 33.917 21.554 42.921 1.624 1.018 3.123 1.836 4.559 2.62 2.861 1.562 5.475 2.988 8.34 5.596 8.48 7.717 16.96 11.332 28.236 13.325 19.257 3.395 47.597 2.329 63.606-10.116.782-.602 1.544-1.36 2.289-2.1.804-.799 1.587-1.577 2.351-2.118 1.492-1.065 3.546-2.026 5.622-2.997 1.717-.803 3.449-1.614 4.888-2.495 17.459-10.707 33.816-31.437 21.775-52.318-2.052-3.556-5.103-5.463-7.842-7.174-2.125-1.327-4.062-2.538-5.197-4.31-2.738-4.287 2.099-8.957 5.777-5.087.185-1.68-2.031-3.777-3.771-4.055-6.89-1.078-9.466 5.991-7.308 11.541l-.477.114c-2.346.56-4.43 1.057-5.984 3.131-4.211 5.643.127 14.333 7.041 11.46.348-.151 1.404-.649 1.473-1.078-6.972 1.9-8.572-7.242-1.45-8.436 8.376-1.402 13.77 6.594 14.397 14.056 1.16 13.813-7.808 24.635-19.594 30.452.302-4.09.232-7.844-.742-11.854-2.912-11.935-13.399-21.309-23.851-26.895-17.784 10.812-42.806 11.739-61.46 2.503-.396-.196-.848-.499-1.323-.818-1.067-.715-2.25-1.509-3.189-1.349-1.613.278-7.494 4.392-9.084 5.597Z" clip-rule="evenodd"/><path fill="#fff" d="m210.587 43.248 5.615 8.47c10.889 17.665 12.398 38.22 3.079 56.967-7.909 15.898-31.176 31.876-17.288 51.688 12.176 17.383 62.372 25.291 49.471 53.996-9.842 21.879-55.912 34.284-74.992 50.563-8.514 7.246-15.739 17.945-6.863 28.343 1.469 1.726 2.071 2.188 5.031 5.239-26.527-12.626-34.477-34.425-8.05-53.434 14.169-10.197 49.813-21.739 24.413-42.835-15.9-13.208-48.505-23.586-52.852-47.212-6.542-35.569 40.595-48.797 59.253-70.877 9.781-11.582 14.31-25.713 13.203-40.888l-.02-.02Z"/><path fill="#fff" d="M228.324 148.412c10.603 1.511 11.828 2.728 13.331 13.331 1.51-10.603 2.728-11.828 13.331-13.331-10.603-1.51-11.821-2.728-13.331-13.33-1.511 10.602-2.728 11.827-13.331 13.33Zm-84.429 66.653c10.602 1.511 11.827 2.728 13.33 13.331 1.511-10.603 2.728-11.828 13.331-13.331-10.603-1.51-11.82-2.728-13.331-13.331-1.51 10.603-2.728 11.828-13.33 13.331Zm145.16-35.549c10.603 1.511 11.827 2.728 13.33 13.331 1.511-10.603 2.728-11.828 13.331-13.331-10.603-1.51-11.82-2.728-13.331-13.33-1.51 10.602-2.727 11.827-13.33 13.33Zm-15.25 60.999c10.603 1.51 11.827 2.727 13.33 13.33 1.511-10.603 2.728-11.827 13.331-13.33-10.603-1.511-11.82-2.728-13.331-13.331-1.51 10.603-2.727 11.828-13.33 13.331Zm-83.993 39.722c10.603 1.51 11.828 2.728 13.331 13.331 1.511-10.603 2.728-11.828 13.331-13.331-10.603-1.511-11.82-2.728-13.331-13.331-1.51 10.603-2.728 11.828-13.331 13.331ZM77.68 252.094c10.603 1.511 11.827 2.728 13.33 13.331 1.51-10.603 2.728-11.827 13.331-13.331-10.603-1.51-11.82-2.727-13.33-13.33-1.511 10.603-2.728 11.827-13.331 13.33Zm-37.47-72.577c15.316 2.181 17.085 3.94 19.256 19.255 2.182-15.315 3.94-17.084 19.256-19.255-15.316-2.182-17.074-3.94-19.256-19.256-2.181 15.316-3.94 17.084-19.255 19.256ZM147.398 55.36c15.316 2.182 17.085 3.94 19.256 19.255 2.182-15.315 3.94-17.084 19.255-19.255-15.315-2.182-17.073-3.94-19.255-19.255-2.182 15.315-3.94 17.084-19.256 19.255Z"/><g fill="#fff" clip-path="url(#a)"><path d="M90.239 74.991h-.382l-.228.305s0 .03-.016.046c-.213.305-.137.61-.045 1.022.046.152.091.38.122.518l-.229-.305-.35.32-.275.26s-.107.106-.153.167c-.015-.015-.046-.03-.06-.06a1.843 1.843 0 0 0-.306-.29l-.137-.092-.35-.092-.245-.06-.305.411v.015a1.274 1.274 0 0 0-.244.93l-.091.214-.26.61c-.03.092-.06.183-.076.26v.03l-.732-.29v.153l.016 1.433v.061c-.32-.076-.61-.137-.961-.198 0 0 0-.03-.015-.03a30.325 30.325 0 0 0-1.205-1.22c.137-.9.183-1.846.152-2.791-.03-.96-.137-1.922-.305-2.867a26.456 26.456 0 0 0-.93-3.599c.29 1.982.32 3.904.305 5.825v2.669c-1.967-1.754-4.132-3.233-6.39-4.575a17.85 17.85 0 0 1-.487-.93 29.783 29.783 0 0 1-.519-1.22 28.908 28.908 0 0 1-1.8-6.496 30.56 30.56 0 0 0 .168 4.239c.107.823.26 1.662.488 2.455.092.305.183.595.29.885-3.263-1.815-6.649-3.462-9.882-5.353-.503-.58-.976-1.19-1.387-1.86-.854-1.419-1.48-3.02-1.937-4.621a31.234 31.234 0 0 1-.778-3.477c-.381 2.364.473 5.002 1.342 7.183 0 .03.015.045.03.076 0 .015.016.046.031.06.198.489.412.946.656 1.373 0 0-.015 0-.03-.015-3.172-2.028-6.13-4.102-8.876-6.298a14.916 14.916 0 0 1-1.052-1.632 9.814 9.814 0 0 1-.839-2.074c-.732-2.531-.549-5.215-.412-7.808-.426 1.861-.731 3.874-.67 5.78.03.87.121 1.708.32 2.532 0 .06.03.122.045.183.092.38.214.747.351 1.097-2.684-2.348-5.108-4.88-7.243-7.685-.382-.702-.778-1.373-1.022-2.166a22.297 22.297 0 0 1-.519-2.104 16.54 16.54 0 0 1 .26-1.967c.472-2.334 1.433-4.423 2.867-6.39.29.488.625.9 1.113 1.205-.107.518.244.58.244.976.442.213.534.777 1.22.732.03.96 1.022 1.296.732 2.21.808 1.312 1.8 2.456 2.577 3.798.839.305 1.205 1.083 1.586 1.83 1.006-.03.67 1.296 1.83 1.098-.061.717.198 1.113.854 1.098.06.336.183.64.244.976 1.296.793 1.769 2.394 3.309 2.943.58 1.25 2.013 1.662 2.821 2.7.229.136.58.152.854.243.168.534.488.9.976 1.098h.732c1.266 1.754 3.873 2.166 5.261 3.797h.732c.229.397.58.626.976.854.122.077.366-.076.488 0 .747.427 1.495 1.236 2.577 1.098.412.565 1.037.915 2.09.854a17.398 17.398 0 0 1 4.04 2.578c.367.03.382-.275.733-.245.213.885 1.418 1.297 2.21 1.22.428.519 1.053.824 1.587 1.22 1.037-.274 1.403 1.083 2.577.61.564.443.61 1.434 1.83 1.22.015.473.137.961.244 1.45.213.655.396 1.326.35 1.997a.728.728 0 0 0-.442-.153l-.045.046Z"/><path d="M28.51 38.392c.153.778.747 1.815.976 2.7.092.335.015.808.122 1.098.092.244.412.472.488.732.214.777.03 1.585.61 2.21.03.397-.213.52-.122.977.686 1.51.686 3.599 1.952 4.773.107.396-.153 1.052 0 1.098 1.144 1.235 1.433 3.294 2.7 4.407v1.098c1.143.564 1.494 1.937 2.454 2.699.046.29.199.458.122.854.305.229.671.381.976.61 0 .35-.06.808.122.976 4.087 1.067 10.4 1.128 14.945.396.168.122.35.23.518.336-3.644 1.464-7.365 2.867-10.568 4.773.244.976 1.434 1.022 1.708 1.952.793.335 1.8.488 2.212 1.22.35 0 .808-.061.976.122.365.122.259.717.487.976.93-.183.763.717 1.465.732 0 .747.793.686.854 1.342 1.067.32 1.54 1.235 2.699 1.464 1.128 1.28 3.126 1.692 4.285 2.943.381-.091.366.214.732.122.213.153.488.26.488.61 1.677.03 2.074 1.357 3.553 1.586.274.839 1.51.686 1.83 1.464 1.205-.107 1.662.534 2.333.976h.976c.87.686 2.318.778 3.431 1.22.29.046.122.534.366.61 1.266 0 2.364.168 3.447.35l-.351-.426 1.326-.183h.031a1.365 1.365 0 0 1-.183-.397l-.244-.945h1.784c.015-.046.046-.077.061-.122.061-.107.229-.23.458-.305.046-.122.03-.275-.107-.534.076-.03.153-.03.229-.046l-.03-.183.884-.03h.076c.305 0 .625.045.96.106-.076-.091-.106-.244-.167-.366-.26-.213-.488-.457-.61-.808.092-.06.214-.107.335-.137l-.045-.198.884-.061h.168c.442 0 .9.091 1.327.198.244.046.472.091.67.122.107 0 .214.03.306.03h.06a1.3 1.3 0 0 0-.045-.35l-.046-.138a28.82 28.82 0 0 0-3.416-3.019 17.81 17.81 0 0 0-2.211-.229c-3.873-.183-7.869.778-11.346 2.41 2.501-1.922 6.466-3.675 10.08-3.721.473 0 .946.015 1.403.076-2.928-1.937-6.07-3.523-9.226-5.276l-1.128-.183a27.144 27.144 0 0 0-4.3-.26c-2.76.061-5.506.58-8.22 1.708-.015 0-.03-.015 0-.03.534-.35 1.098-.686 1.693-.976 2.424-1.22 5.337-1.921 8.158-1.906.381 0 .747.015 1.113.046a111.44 111.44 0 0 1-8.86-5.994 163.7 163.7 0 0 1-3.217-2.47c-.138-.046-.29-.091-.427-.152-1.86-.717-3.614-1.678-5.475-2.425-2.653-1.083-5.383-1.632-8.128-2.394-.015 0 0-.03 0-.03.503 0 1.037.03 1.586.06 2.028.137 4.24.519 6.36 1.174.807.244 1.6.55 2.363.885.076.03.152.076.228.107-.335-.275-.686-.55-1.006-.84a28.059 28.059 0 0 1-3.553-3.69c-3.507-1.982-6.847-3.95-10.705-5.383 1.738.458 3.599 1.007 5.398 1.739a23.194 23.194 0 0 1 3.934 2.013c-1.555-1.922-2.928-3.98-4.056-6.192-2.165-2.958-4.758-5.673-8.174-7.167 1.998.854 3.889 1.921 5.49 3.264.061.045.122.106.183.152.503.427.96.9 1.403 1.403a31.396 31.396 0 0 1-1.723-5.78c1.19 3.325 2.653 6.314 4.361 9.028a8.28 8.28 0 0 1-.152-.656 13.58 13.58 0 0 1-.275-1.326c-.58-3.508.168-7.076 2.974-10.202a6.126 6.126 0 0 0-.625-.961 3.16 3.16 0 0 0-.046-.518c-.015-.138-.198-.183-.305-.122-1.052.64-.686-1.434-1.144-1.785-.305-.244-.778-.076-1.159.092-.091-.625-.305-1.739-.717-2.044v-.122c-.64-.274-.701.122-1.341.122-.488-.091-.427-.716-.976-.732-.473-.167-.9.244-1.22.244-.717 0-1.129-.442-1.586-.488-.199-.015-.351.214-.61.244-.93.107-1.83-.198-2.7.366-.06.046-.35.397-.61.61-.411.336-1.402 1.236-1.707 1.708-.092.138-.077.565-.244.854-.275.488-.504.656-.732 1.464-.26.915-.534 3.767-.366 4.651h.091Zm64.887 51.193c1.754 3.279 4.163 6.512 3.797 11.514-.442.457-1.815.731-2.455.244.747-2.806.137-5.277-.732-7.473-.58-1.464-1.525-2.73-1.845-4.148-.03-.213-.061-.442-.092-.64v-.106c.046 0 .122 0 .168.014.305.382.686.687 1.159.595Z"/><path d="M77.72 88.716c.06.503-.58.32-.855.488.26.274 1.083-.03 1.22.366-.091.396-.335.64-.731.732.747.396 1.875.412 2.82.61.107.67-.243.9-.731.976.183.107.442.137.732.137.32 0 .686-.03 1.021-.03.122 0 .23 0 .336.015-.015.137.03.213.122.244-.26.67-.991.884-1.464 1.342h.076c1.16 0 2.593-1.114 3.858-1.114h.23c-.382 1.037-1.22 1.632-1.953 2.334 1.296-.214 2.486-1.602 3.797-2.196.32.854-.549 1.57-.61 2.455.702-.366 1.114-1.007 1.83-1.342.519.046.58.564.61 1.098.534-.488.534-1.51 1.22-1.83h.046c.29 0 .335.244.64.244h.046c.229-.87.381-1.83.732-2.577.153-.03.26-.076.35-.076.092 0 .169.045.275.198.397-.87-.35-2.242 0-3.065h.092c.488 0 .488.503.976.503h.046c-.153-.26-.336-.473-.488-.732.122-.03.259-.046.38-.046.931 0 1.861.625 2.548 1.022.198-.198-.061-.458.243-.732.153.046.275.06.382.06.701 0 .716-.67 1.418-.67h.03c-.106-.214-.457-.198-.487-.488.259-.518.914-.625 1.463-.854-.228-.427.092-.717.489-.854-.489-.61-.016-1.296.487-1.586-.152-.213-.579-.153-.61-.488-.121-.701.504-.64.488-1.22-.304.137-.548.198-.731.198-.84 0-.367-1.326.365-1.8a.398.398 0 0 0-.167-.045c-.336 0-.64.473-1.205.473a.923.923 0 0 1-.335-.061c0-1.296.792-1.83 1.22-2.7-.809.138-1.678 1.266-2.578 1.709-1.052-.55-.06-2.135.244-2.822 0-.167 0-.228-.046-.228-.06 0-.167.259-.198.35-.168.123-.244.32-.366.489a2.359 2.359 0 0 0-1.098.487c-.472-.335-.228-1.784-.122-2.333-.549.305-.488 1.22-1.22 1.342-.58-.686.016-2.546-.366-3.43-.549 1.005-.64 2.47-1.22 3.43h-.03c-.488 0-.32-.64-.58-.854-.045-.076-.076-.106-.091-.106-.061 0 .183.731.213 1.082.046.656.107 1.373-.122 1.586-.503-.06-.747-.396-.976-.732-.38.35.168.885-.122 1.22-.823-.076-.823-.976-1.342-1.342-.29.381.153 1.068.122 1.586 0 .168-.152.244-.305.244-.152 0-.305-.076-.305-.244-.213.503.671 1.388.122 1.952-.457-.076-.61-.457-.854-.732.016.153.168.808-.243 1.098-.565-.168-.915-.26-1.342-.335-.138.305-.443.533-.778.518 0 .107 0 .198.03.305-.213.26-.518.336-.869.336-.701 0-1.586-.351-2.318-.351h-.122c.153.747 1.098.701 1.22 1.464-.152.167-.412.213-.701.213-.595 0-1.373-.213-1.922-.213h-.06c.09.518.746.472.731 1.098a.472.472 0 0 1-.32.122c-.366 0-.702-.443-1.022-.488h-.091c-.336 0 .167.32-.153.503h-1.464c.138.549 1.037.35 1.098.976-.03.32-.305.381-.656.381-.228 0-.472-.03-.701-.03h-.244c.229.29.656.412.854.732.168.762-.35.869-.96.869h-.504c.381.518 1.464.335 1.586 1.098l-.03.06Zm12.565 1.48c-.198.396-.473.716-.778 1.02.351-.472.534-1.112.702-1.63.168-.535.381-1.16.305-1.724h.046s.03.06.03.091c.03.153.061.305.076.458.016.64-.198 1.418-.38 1.784Zm1.952-3.081c.824.076 2.09-.199 2.623-.808-.091.564-1.052 1.006-1.876 1.006-.29 0-.533-.076-.747-.198Zm-1.28-.717s.06-.046.09-.076c.916.06 2.075-.244 2.868-.793-.427.503-1.053.991-1.617 1.128a2.74 2.74 0 0 1-.67.092c-.29 0-.58-.076-.672-.336v-.015Zm-4.545 5.75s.06-.062.091-.108c1.48-.945 2.837-2.867 2.882-4.681.183.38.244.823.199 1.235-.138 1.22-1.785 3.568-2.99 3.568-.06 0-.136 0-.197-.015h.015Zm-3.05-1.343c.107-.03.213-.06.305-.076.93-.046 1.83-.381 2.623-.915a7.026 7.026 0 0 0 1.067-.808c-.716 1.006-1.738 2.043-2.958 2.043a2.31 2.31 0 0 1-1.052-.26l.015.016Zm-1.967-1.708c.32-.03.625-.076.93-.107.915-.122 1.8-.29 2.5-.625-.396.503-1.463.96-2.424.96-.366 0-.717-.075-1.006-.228Z"/></g><g fill="#fff" clip-path="url(#b)"><path d="M305.48 61.491c4.124 3.34 10.836 3.012 14.697-1.25 3.376-3.73 3.457-8.094 1.941-12.397 5.135-4.938 4.751-12.459-.182-16.7-4.326-3.71-10.755-3.73-15.324 1.168-4.124-1.742-9.138-1.558-12.756 2.52-3.74 4.242-3.639 10.532-.445 14.446 2.648 3.238 4.973 3.525 7.803 4.303.405 2.685 1.153 5.39 4.246 7.91h.02Zm-2.123-10.245c-1.738 0-4.528-1.578-5.842-3.77-1.84-3.095-.748-7.316 1.94-9.509 2.123-1.742 4.913-1.967 7.521-.799 3.073-3.115 7.015-3.443 10.007-.984 3.7 3.033 3.72 7.87.364 11.312.101.799.526 1.352.627 2.07.788 5.696-5.802 10.737-10.897 7.622-2.183-1.332-3.619-4.016-3.72-5.922v-.02Z"/><path d="M301.861 59.606c-1.132-1.7-1.374-3.401-1.678-5.123-1.678-.307-3.355-.532-5.054-1.7-1.455 1.578-3.356 3.176-4.508 4.754 1.496 2.192 4.387 4.836 6.469 6.741 1.597-1.209 3.195-3.155 4.792-4.672h-.021ZM276.974 92.72c3.174-2.91 8.855 2.992 11.24 6.373.142-2.726.223-5.553.081-8.71-.04-1.229 0-2.745-.081-4.405-.06-1.352 0-3.688-.707-4.487a.593.593 0 0 0-.526 0c-2.81 4.282-7.116 6.66-10.714 4.57l-6.652 6.74c1.294 2.5-.081 5.923-2.648 7.91-.97.759-2.689.697-2.83 2.152.829.758 1.961.799 2.83.902.95.102 1.961.143 2.931.082-1.88-3.873 6.429-3.299 4.084.368 1.617.246 3.255.39 4.872.451 1.577.062 3.296.246 4.872-.451-4.407-.881-10.472-8.073-6.732-11.495h-.02Zm18.598-28.011-5.317-5.39c-.121-.082-.242.041-.364.185L265.713 84.01c-2.022 2.07-6.854 6.004-6.995 8.176-.101 1.537 2.426 4.385 4.164 4.406 2.123 0 6.065-4.898 8.148-7.008l24.542-24.876Zm-27.897 15.347c-1.334-.512-2.426-2.336-2.487-3.401-1.678.143-3.356.614-5.054 1.352-.525 1.64-.707 3.3-.444 4.939 1.213.328 2.426.43 3.638 1.7 1.395-1.516 3.255-3.053 4.347-4.57v-.02Z"/></g><defs><clipPath id="a"><path fill="#fff" d="M28.45 28.48h70.452v73.106H28.45z"/></clipPath><clipPath id="b"><path fill="#fff" d="M258.719 28.48h67.098v76.248h-67.098z"/></clipPath></defs></svg>