<svg width="360" height="452" viewBox="0 0 360 452" fill="none" xmlns="http://www.w3.org/2000/svg">
<path d="M179.774 0.5H0.5V283.441C0.5 355.678 36.7787 394.809 179.759 450.5C322.739 394.809 359.018 355.678 359.018 283.441V0.5H179.759H179.774Z" fill="black" stroke="white" stroke-miterlimit="10"/>
<path d="M213.392 316.565C216.292 319.74 209.634 322.417 207.441 323.17C191.154 328.767 160.099 328.709 143.65 323.784C138.754 322.312 130.796 318.686 139.566 314.943C153.638 308.94 190.864 309.589 205.817 313.425C207.65 313.9 212.186 315.244 213.404 316.565H213.392ZM149.137 318.129C152.768 319.647 156.932 320.412 160.853 320.887C171.154 322.139 183.579 321.884 193.799 320.099C196.803 319.578 205.469 318.106 197.499 316.275C187.024 313.877 162.593 313.784 152.164 316.275C151.132 316.519 150.123 316.832 149.125 317.156L149.148 318.106L149.137 318.129Z" fill="white"/>
<path d="M237.022 319.531C234.864 313.981 237.439 306.913 244.329 307.99C246.069 308.268 248.285 310.366 248.1 312.046C244.422 308.176 239.585 312.845 242.322 317.133C244.921 321.188 251.719 322.301 255.361 328.616C267.402 349.497 251.046 370.227 233.587 380.934C230.408 382.88 225.803 384.48 223.077 386.427C221.604 387.47 220.061 389.393 218.437 390.645C202.428 403.089 174.088 404.156 154.831 400.761C143.555 398.768 135.076 395.152 126.596 387.435C122.292 383.518 118.556 382.266 113.695 379.219C99.334 370.215 84.5317 354.653 92.1417 336.298C95.4364 328.361 106.805 320.829 114.867 326.657C120.702 330.875 119.786 341.594 111.631 340.945L114.159 339.566C117.28 334.804 113.359 330.528 108.127 331.165C102.675 331.826 98.8116 337.677 98.336 342.822C97.2456 354.618 106.573 363.923 116.734 368.176C116.862 366.241 116.56 364.132 116.734 362.22L116.724 362.243C117.617 352.208 124.994 342.312 132.778 336.414C134.368 335.209 140.248 331.096 141.861 330.817C143.219 330.586 145.086 332.347 146.374 332.984C165.028 342.22 190.05 341.293 207.834 330.481C218.286 336.067 228.773 345.441 231.685 357.376C232.659 361.385 232.728 365.14 232.427 369.23C244.213 363.414 253.181 352.591 252.021 338.778C251.394 331.316 246 323.321 237.624 324.723C230.502 325.916 232.103 335.058 239.074 333.158C239.005 333.587 237.95 334.084 237.602 334.235C230.688 337.109 226.349 328.419 230.56 322.775C232.219 320.562 234.481 320.145 237.022 319.531Z" fill="white"/>
<path d="M210.087 42.7479L215.702 51.2186C226.591 68.8827 228.1 89.4373 218.781 108.185C210.872 124.083 187.605 140.061 201.493 159.873C213.669 177.256 263.865 185.164 250.964 213.869C241.122 235.748 195.052 248.153 175.972 264.432C167.458 271.678 160.233 282.377 169.109 292.775C170.578 294.501 171.18 294.963 174.14 298.014C147.613 285.388 139.663 263.589 166.09 244.58C180.259 234.383 215.903 222.841 190.503 201.745C174.603 188.537 141.998 178.159 137.651 154.533C131.109 118.964 178.246 105.736 196.904 83.6563C206.685 72.0743 211.214 57.943 210.107 42.768L210.087 42.7479Z" fill="white"/>
<path d="M227.824 147.912C238.427 149.423 239.652 150.64 241.155 161.243C242.665 150.64 243.883 149.415 254.486 147.912C243.883 146.402 242.665 145.184 241.155 134.582C239.644 145.184 238.427 146.409 227.824 147.912Z" fill="white"/>
<path d="M143.395 214.565C153.997 216.076 155.222 217.293 156.725 227.896C158.236 217.293 159.453 216.068 170.056 214.565C159.453 213.055 158.236 211.837 156.725 201.234C155.215 211.837 153.997 213.062 143.395 214.565Z" fill="white"/>
<path d="M288.555 179.016C299.158 180.527 300.382 181.744 301.885 192.347C303.396 181.744 304.613 180.519 315.216 179.016C304.613 177.506 303.396 176.288 301.885 165.686C300.375 176.288 299.158 177.513 288.555 179.016Z" fill="white"/>
<path d="M273.305 240.015C283.908 241.525 285.132 242.742 286.635 253.345C288.146 242.742 289.363 241.518 299.966 240.015C289.363 238.504 288.146 237.287 286.635 226.684C285.125 237.287 283.908 238.512 273.305 240.015Z" fill="white"/>
<path d="M189.312 279.737C199.915 281.247 201.14 282.465 202.643 293.068C204.154 282.465 205.371 281.24 215.974 279.737C205.371 278.226 204.154 277.009 202.643 266.406C201.133 277.009 199.915 278.234 189.312 279.737Z" fill="white"/>
<path d="M77.1797 251.594C87.7826 253.105 89.0072 254.322 90.5103 264.925C92.0209 254.322 93.2381 253.098 103.841 251.594C93.2381 250.084 92.0209 248.867 90.5103 238.264C88.9998 248.867 87.7826 250.091 77.1797 251.594Z" fill="white"/>
<path d="M39.7109 179.017C55.0263 181.198 56.7951 182.957 58.9663 198.272C61.1482 182.957 62.9064 181.188 78.2217 179.017C62.9064 176.835 61.1482 175.077 58.9663 159.761C56.7845 175.077 55.0263 176.845 39.7109 179.017Z" fill="white"/>
<path d="M146.898 54.8599C162.214 57.0417 163.983 58.7999 166.154 74.1153C168.336 58.7999 170.094 57.0311 185.409 54.8599C170.094 52.678 168.336 50.9198 166.154 35.6045C163.972 50.9198 162.214 52.6886 146.898 54.8599Z" fill="white"/>
<g clip-path="url(#clip0_168_1001)">
<path d="M89.7387 74.4911H89.3575L89.1287 74.7961C89.1287 74.7961 89.1287 74.8266 89.1135 74.8418C88.9 75.1468 88.9762 75.4518 89.0677 75.8635C89.1135 76.016 89.1592 76.2448 89.1897 76.382L88.961 76.077L88.6102 76.3973L88.3357 76.6565C88.3357 76.6565 88.229 76.7633 88.1833 76.8242C88.168 76.809 88.1375 76.7938 88.1223 76.7633C88.0308 76.6565 87.9393 76.565 87.8173 76.4735L87.68 76.382L87.3293 76.2905L87.0853 76.2295L86.7803 76.6413C86.7803 76.6413 86.7803 76.6413 86.7803 76.6565C86.5516 76.9615 86.5058 77.2817 86.5363 77.5867L86.4448 77.8002L86.1856 78.4102C86.1551 78.5017 86.1246 78.5932 86.1093 78.6695V78.6999L85.3773 78.4102V78.5627L85.3926 79.9962V80.0572C85.0723 79.9809 84.7826 79.9199 84.4319 79.8589C84.4319 79.8589 84.4319 79.8284 84.4166 79.8284C84.0201 79.4014 83.6236 79.0049 83.2119 78.6085C83.3491 77.7087 83.3949 76.7633 83.3644 75.8178C83.3339 74.8571 83.2271 73.8963 83.0594 72.9509C82.8307 71.7004 82.5104 70.4957 82.1292 69.352C82.4189 71.3344 82.4494 73.2559 82.4342 75.1773C82.4342 75.7415 82.4342 76.2905 82.4342 76.8548C82.4342 77.175 82.4342 77.5105 82.4342 77.846C80.467 76.0923 78.3015 74.6131 76.0446 73.2711C75.8768 72.9661 75.7091 72.6611 75.5566 72.3409C75.3736 71.9444 75.2059 71.5326 75.0381 71.1209C74.1841 69.047 73.5894 66.851 73.2387 64.6246C73.2082 65.7378 73.2234 67.2933 73.4064 68.864C73.5132 69.6874 73.6656 70.5262 73.8944 71.3192C73.9859 71.6241 74.0774 71.9139 74.1841 72.2036C70.9207 70.3889 67.5353 68.742 64.3024 66.851C63.7992 66.2715 63.3264 65.6616 62.9147 64.9906C62.0607 63.5724 61.4355 61.9712 60.978 60.3699C60.6425 59.1957 60.3833 58.0063 60.2003 56.893C59.819 59.2567 60.673 61.8949 61.5422 64.0756C61.5422 64.1061 61.5575 64.1213 61.5727 64.1518C61.5727 64.1671 61.588 64.1976 61.6032 64.2128C61.8015 64.7008 62.015 65.1583 62.259 65.5853C62.259 65.5853 62.2437 65.5853 62.2285 65.5701C59.0565 63.5419 56.0981 61.4679 53.3532 59.272C52.972 58.7535 52.6212 58.2198 52.301 57.6403C51.9655 57.015 51.6757 56.3441 51.4623 55.5663C50.7303 53.0349 50.9133 50.351 51.0505 47.7585C50.6235 49.619 50.3185 51.6319 50.3795 53.5381C50.41 54.4074 50.5015 55.2461 50.6998 56.0696C50.6998 56.1306 50.7303 56.1916 50.7455 56.2526C50.837 56.6338 50.959 56.9998 51.0963 57.3505C48.4123 55.0021 45.9877 52.4707 43.8527 49.6647C43.4715 48.9633 43.075 48.2923 42.831 47.4993C42.6327 46.8283 42.4497 46.1116 42.3125 45.3949C42.3582 44.7239 42.4497 44.0681 42.5717 43.4277C43.0445 41.0945 44.0052 39.0053 45.4387 37.0381C45.7284 37.5261 46.0639 37.9378 46.5519 38.2428C46.4451 38.7613 46.7959 38.8223 46.7959 39.2188C47.2381 39.4323 47.3296 39.9965 48.0158 39.9508C48.0463 40.9115 49.0376 41.247 48.7478 42.1619C49.5561 43.4734 50.5473 44.6171 51.325 45.9591C52.1637 46.2641 52.5297 47.0418 52.911 47.789C53.9174 47.7585 53.5819 49.0853 54.7409 48.887C54.6799 49.6037 54.9392 50.0002 55.5949 49.985C55.6559 50.3205 55.7779 50.6255 55.8389 50.961C57.1351 51.7539 57.6078 53.3551 59.148 53.9041C59.7275 55.1546 61.161 55.5663 61.9692 56.6033C62.198 56.7405 62.5487 56.7558 62.8232 56.8473C62.9909 57.381 63.3112 57.747 63.7992 57.9453H64.5311C65.7969 59.699 68.4045 60.1107 69.7923 61.7424H70.5242C70.753 62.1389 71.1037 62.3676 71.5002 62.5964C71.6222 62.6726 71.8662 62.5201 71.9882 62.5964C72.7354 63.0234 73.4827 63.8316 74.5654 63.6944C74.9771 64.2586 75.6023 64.6093 76.6546 64.5483C78.1643 65.2498 79.5062 66.1038 80.6957 67.1255C81.0617 67.156 81.0769 66.851 81.4277 66.8815C81.6412 67.766 82.8459 68.1777 83.6389 68.1015C84.0659 68.62 84.6911 68.925 85.2248 69.3215C86.2618 69.047 86.6278 70.4042 87.802 69.9314C88.3662 70.3737 88.412 71.3649 89.632 71.1514C89.6472 71.6241 89.7692 72.1121 89.876 72.6001C90.0895 73.2558 90.2724 73.9268 90.2267 74.5978C90.12 74.5216 89.9827 74.4453 89.7845 74.4453L89.7387 74.4911Z" fill="white"/>
<path d="M28.0101 37.8919C28.1626 38.6696 28.7573 39.7066 28.9861 40.591C29.0776 40.9265 29.0013 41.3993 29.1081 41.689C29.1996 41.933 29.5198 42.1617 29.5961 42.421C29.8096 43.1987 29.6266 44.0069 30.206 44.6322C30.2365 45.0287 29.9925 45.1507 30.084 45.6081C30.7703 47.1178 30.7703 49.207 32.036 50.3813C32.1427 50.7777 31.8835 51.4335 32.036 51.4792C33.1797 52.7144 33.4695 54.7731 34.7352 55.8864V56.9843C35.8789 57.5486 36.2296 58.921 37.1904 59.6835C37.2361 59.9733 37.3886 60.141 37.3124 60.5375C37.6173 60.7662 37.9833 60.9187 38.2883 61.1475C38.2883 61.4982 38.2273 61.9557 38.4103 62.1234C42.4972 63.1909 48.8105 63.2519 53.3549 62.5199C53.5227 62.6419 53.7057 62.7487 53.8734 62.8554C50.2288 64.3194 46.5078 65.7223 43.3054 67.6285C43.5494 68.6045 44.7389 68.6503 45.0134 69.5805C45.8064 69.916 46.8128 70.0685 47.2246 70.8005C47.5753 70.8005 48.0328 70.7395 48.2006 70.9225C48.5665 71.0444 48.4598 71.6392 48.6885 71.8984C49.6188 71.7154 49.451 72.6152 50.1525 72.6304C50.1525 73.3776 50.9455 73.3166 51.0065 73.9724C52.0739 74.2926 52.5467 75.2076 53.7057 75.4363C54.8341 76.7173 56.8318 77.129 57.9908 78.3795C58.372 78.288 58.3568 78.593 58.7228 78.5015C58.9363 78.654 59.2108 78.7607 59.2108 79.1115C60.8882 79.142 61.2847 80.4687 62.7639 80.6974C63.0384 81.5362 64.2736 81.3837 64.5939 82.1614C65.7986 82.0546 66.2561 82.6951 66.927 83.1374H67.903C68.7722 83.8236 70.221 83.9151 71.3342 84.3573C71.6239 84.4031 71.4562 84.8911 71.7002 84.9673C72.9659 84.9673 74.0639 85.1351 75.1466 85.3181L74.7958 84.8911L76.1225 84.7081H76.153C76.0768 84.6013 76.0158 84.4641 75.97 84.3116L75.7261 83.3661H76.702H77.5103C77.5255 83.3204 77.556 83.2899 77.5713 83.2441C77.6323 83.1374 77.8 83.0154 78.0287 82.9391C78.0745 82.8171 78.0592 82.6646 77.922 82.4054C77.9982 82.3749 78.0745 82.3749 78.1507 82.3596L78.1202 82.1766L79.0047 82.1461H79.081C79.386 82.1461 79.7062 82.1919 80.0417 82.2529C79.9654 82.1614 79.9349 82.0089 79.8739 81.8869C79.6147 81.6734 79.386 81.4294 79.264 81.0787C79.3555 81.0177 79.4775 80.9719 79.5994 80.9414L79.5537 80.7432L80.4382 80.6822C80.4382 80.6822 80.5449 80.6822 80.6059 80.6822C81.0482 80.6822 81.5056 80.7737 81.9326 80.8804C82.1766 80.9262 82.4054 80.9719 82.6036 81.0024C82.7104 81.0024 82.8171 81.0329 82.9086 81.0329C82.9391 81.0329 82.9544 81.0329 82.9696 81.0329C82.9696 80.9109 82.9544 80.7889 82.9239 80.6822L82.8781 80.5449C81.7954 79.4317 80.6669 78.4253 79.4622 77.5255C78.7302 77.4035 77.9982 77.3273 77.251 77.2968C73.3776 77.1138 69.3822 78.0745 65.9053 79.7062C68.4063 77.7848 72.3711 76.0311 75.9853 75.9853C76.458 75.9853 76.9308 76.0006 77.3883 76.0616C74.4603 74.1249 71.3189 72.5389 68.1623 70.7852C67.781 70.7242 67.415 70.6632 67.0338 70.6022C65.6003 70.404 64.1669 70.3125 62.7334 70.343C59.9732 70.404 57.2283 70.9225 54.5139 72.0509C54.4986 72.0509 54.4834 72.0357 54.5139 72.0204C55.0476 71.6697 55.6119 71.3342 56.2066 71.0444C58.6313 69.8245 61.5439 69.123 64.3651 69.1382C64.7464 69.1382 65.1123 69.1535 65.4783 69.184C62.4437 67.3388 59.47 65.3259 56.6183 63.1909C55.5356 62.3827 54.4681 61.5592 53.4007 60.7205C53.2634 60.6747 53.1109 60.629 52.9737 60.568C51.1132 59.8513 49.3595 58.8905 47.4991 58.1433C44.8456 57.0606 42.116 56.5116 39.371 55.7491C39.3558 55.7491 39.371 55.7186 39.371 55.7186C39.8743 55.7186 40.408 55.7491 40.957 55.7796C42.9852 55.9169 45.1964 56.2981 47.3161 56.9538C48.1243 57.1978 48.9173 57.5028 49.6798 57.8383C49.756 57.8688 49.8323 57.9146 49.9085 57.9451C49.573 57.6706 49.2223 57.3961 48.902 57.1063C47.6211 55.9931 46.4164 54.7579 45.3489 53.4159C41.8415 51.4335 38.5018 49.4663 34.6437 48.0328C36.3821 48.4903 38.2426 49.0393 40.042 49.7713C40.774 50.061 41.506 50.3965 42.2075 50.7625C42.8175 51.0827 43.4122 51.4182 43.9764 51.7842C42.421 49.8628 41.0485 47.8041 39.92 45.5929C37.7546 42.6345 35.1622 39.92 31.7463 38.4256C33.7439 39.2796 35.6349 40.347 37.2361 41.689C37.2971 41.7347 37.3581 41.7957 37.4191 41.8415C37.9223 42.2685 38.3798 42.7412 38.8221 43.2445C38.0901 41.4298 37.4953 39.5083 37.0989 37.4649C38.2883 40.7893 39.7523 43.7782 41.4602 46.4926C41.3992 46.2791 41.3535 46.0656 41.3077 45.8369C41.1857 45.3946 41.1095 44.9524 41.0332 44.5102C40.4538 41.0028 41.201 37.4344 44.0069 34.3082C43.8239 33.9575 43.6104 33.6372 43.3817 33.3475C43.3817 33.1797 43.3664 33.012 43.3359 32.829C43.3207 32.6917 43.1377 32.646 43.0309 32.707C41.9787 33.3475 42.3447 31.2735 41.8872 30.9228C41.5822 30.6788 41.1095 30.8465 40.7283 31.0143C40.6368 30.3891 40.4233 29.2758 40.0115 28.9708C40.0115 28.9251 40.0115 28.8946 40.0115 28.8488C39.371 28.5744 39.31 28.9708 38.6696 28.9708C38.1816 28.8793 38.2426 28.2541 37.6936 28.2389C37.2209 28.0711 36.7939 28.4829 36.4736 28.4829C35.7569 28.4829 35.3452 28.0406 34.8877 27.9949C34.6894 27.9796 34.5369 28.2084 34.2777 28.2389C33.3475 28.3456 32.4477 28.0406 31.5785 28.6049C31.5175 28.6506 31.2278 29.0013 30.9685 29.2148C30.5568 29.5503 29.5656 30.4501 29.2606 30.9228C29.1691 31.06 29.1843 31.487 29.0166 31.7768C28.7421 32.2648 28.5133 32.4325 28.2846 33.2407C28.0254 34.1557 27.7509 37.0074 27.9186 37.8919H28.0101Z" fill="white"/>
<path d="M92.897 89.0846C94.6507 92.3633 97.0602 95.5962 96.6942 100.598C96.2519 101.056 94.8795 101.33 94.239 100.842C94.9862 98.0361 94.3762 95.5657 93.507 93.3697C92.9275 91.9058 91.982 90.6401 91.6618 89.2218C91.6313 89.0083 91.6008 88.7796 91.5703 88.5814C91.5703 88.5661 91.5703 88.5509 91.5703 88.5356C91.5703 88.5204 91.5703 88.4899 91.5703 88.4746C91.6161 88.4746 91.6923 88.4746 91.7381 88.4899C92.0431 88.8711 92.4243 89.1761 92.897 89.0846Z" fill="white"/>
<path d="M77.2195 88.2154C77.2805 88.7186 76.64 88.5356 76.3655 88.7034C76.6248 88.9779 77.4483 88.6729 77.5855 89.0694C77.494 89.4659 77.25 89.7099 76.8535 89.8014C77.6008 90.1979 78.7292 90.2131 79.6747 90.4113C79.7814 91.0823 79.4307 91.3111 78.9427 91.3873C79.1257 91.4941 79.385 91.5246 79.6747 91.5246C79.9949 91.5246 80.3609 91.4941 80.6964 91.4941C80.8184 91.4941 80.9252 91.4941 81.0319 91.5093C81.0167 91.6466 81.0624 91.7228 81.1539 91.7533C80.8947 92.4243 80.1627 92.6378 79.69 93.0953C79.7205 93.0953 79.7357 93.0953 79.7662 93.0953C80.9252 93.0953 82.3586 91.9821 83.6243 91.9821C83.7006 91.9821 83.7768 91.9821 83.8531 91.9821C83.4718 93.019 82.6331 93.6138 81.9011 94.3152C83.1974 94.1017 84.3868 92.714 85.6983 92.1193C86.0185 92.9733 85.1493 93.69 85.0883 94.5745C85.7898 94.2085 86.2015 93.568 86.9183 93.2325C87.4367 93.2783 87.4977 93.7968 87.5282 94.3305C88.062 93.8425 88.062 92.8208 88.7482 92.5005C88.7635 92.5005 88.7787 92.5005 88.794 92.5005C89.0837 92.5005 89.1294 92.7445 89.4344 92.7445C89.4497 92.7445 89.4649 92.7445 89.4802 92.7445C89.7089 91.8753 89.8614 90.9146 90.2122 90.1674C90.3647 90.1369 90.4714 90.0911 90.5629 90.0911C90.6544 90.0911 90.7307 90.1369 90.8374 90.2894C91.2339 89.4201 90.4867 88.0477 90.8374 87.2242C90.8679 87.2242 90.8984 87.2242 90.9289 87.2242C91.4169 87.2242 91.4169 87.7274 91.9049 87.7274C91.9049 87.7274 91.9354 87.7274 91.9506 87.7274C91.7981 87.4682 91.6151 87.2547 91.4626 86.9954C91.5846 86.9649 91.7219 86.9497 91.8439 86.9497C92.7741 86.9497 93.7043 87.5749 94.3906 87.9714C94.5888 87.7732 94.3296 87.5139 94.6345 87.2394C94.787 87.2852 94.909 87.3004 95.0158 87.3004C95.7173 87.3004 95.7325 86.6294 96.434 86.6294H96.4645C96.3577 86.416 96.007 86.4312 95.9765 86.1415C96.2358 85.623 96.8915 85.5162 97.4405 85.2875C97.2117 84.8605 97.532 84.5708 97.9285 84.4335C97.4405 83.8235 97.9132 83.1373 98.4164 82.8476C98.2639 82.6341 97.837 82.6951 97.8065 82.3596C97.6845 81.6581 98.3097 81.7191 98.2944 81.1396C97.9895 81.2768 97.7455 81.3378 97.5625 81.3378C96.7237 81.3378 97.1965 80.0111 97.9285 79.5384C97.8675 79.5079 97.8065 79.4926 97.7607 79.4926C97.4252 79.4926 97.1202 79.9654 96.556 79.9654C96.4492 79.9654 96.3425 79.9501 96.2205 79.9044C96.2205 78.6082 97.0135 78.0744 97.4405 77.2052C96.6322 77.3425 95.763 78.4709 94.8633 78.9132C93.8111 78.3642 94.8023 76.7782 95.1073 76.092C95.1073 75.9242 95.1073 75.8632 95.0615 75.8632C95.0005 75.8632 94.8938 76.1225 94.8633 76.214C94.6955 76.336 94.6193 76.5342 94.4973 76.702C94.0398 76.7782 93.6891 76.9612 93.3993 77.19C92.9266 76.8545 93.1706 75.4058 93.2773 74.8568C92.7283 75.1618 92.7893 76.0767 92.0574 76.1987C91.4779 75.5125 92.0726 73.6521 91.6914 72.7676C91.1424 73.7741 91.0509 75.238 90.4714 76.1987C90.4714 76.1987 90.4562 76.1987 90.4409 76.1987C89.9529 76.1987 90.1207 75.5583 89.8614 75.3448C89.8157 75.2685 89.7852 75.238 89.7699 75.238C89.7089 75.238 89.9529 75.97 89.9834 76.3207C90.0292 76.9765 90.0902 77.6932 89.8614 77.9067C89.3582 77.8457 89.1142 77.5102 88.8854 77.1747C88.5042 77.5254 89.0532 78.0592 88.7635 78.3947C87.94 78.3184 87.94 77.4187 87.4215 77.0527C87.1317 77.434 87.574 78.1202 87.5435 78.6387C87.5435 78.8064 87.391 78.8827 87.2385 78.8827C87.086 78.8827 86.9335 78.8064 86.9335 78.6387C86.72 79.1419 87.6045 80.0264 87.0555 80.5906C86.598 80.5144 86.4455 80.1331 86.2015 79.8586C86.2168 80.0111 86.3693 80.6669 85.9575 80.9566C85.3933 80.7889 85.0426 80.6974 84.6156 80.6211C84.4783 80.9261 84.1733 81.1548 83.8378 81.1396C83.8378 81.2463 83.8378 81.3378 83.8683 81.4446C83.6548 81.7038 83.3498 81.7801 82.9991 81.7801C82.2976 81.7801 81.4132 81.4293 80.6812 81.4293C80.6354 81.4293 80.5897 81.4293 80.5592 81.4293C80.7117 82.1766 81.6571 82.1308 81.7791 82.8933C81.6266 83.061 81.3674 83.1068 81.0777 83.1068C80.4829 83.1068 79.7052 82.8933 79.1562 82.8933C79.1257 82.8933 79.1105 82.8933 79.0952 82.8933C79.1867 83.4118 79.8424 83.366 79.8272 83.9913C79.7205 84.0828 79.6137 84.1133 79.507 84.1133C79.141 84.1133 78.8055 83.671 78.4852 83.6253C78.4547 83.6253 78.4242 83.6253 78.3937 83.6253C78.0582 83.6253 78.5615 83.9455 78.2412 84.1285H76.7773C76.9145 84.6775 77.8143 84.4793 77.8753 85.1045C77.8448 85.4247 77.5703 85.4857 77.2195 85.4857C76.9908 85.4857 76.7468 85.4552 76.518 85.4552C76.4265 85.4552 76.3503 85.4552 76.274 85.4552C76.5028 85.745 76.9298 85.867 77.128 86.1872C77.2958 86.9497 76.7773 87.0564 76.1673 87.0564C75.9996 87.0564 75.8318 87.0564 75.6641 87.0564C76.0453 87.5749 77.128 87.3919 77.25 88.1544L77.2195 88.2154ZM89.7852 89.6946C89.5869 90.0911 89.3124 90.4113 89.0074 90.7163C89.3582 90.2436 89.5412 89.6031 89.7089 89.0846C89.8767 88.5509 90.0902 87.9257 90.0139 87.3614H90.0597C90.0597 87.3614 90.0902 87.4224 90.0902 87.4529C90.1207 87.6054 90.1512 87.7579 90.1664 87.9104C90.1817 88.5509 89.9682 89.3286 89.7852 89.6946ZM91.7371 86.6142C92.5606 86.6904 93.8263 86.416 94.3601 85.806C94.2686 86.3702 93.3078 86.8124 92.4844 86.8124C92.1946 86.8124 91.9506 86.7362 91.7371 86.6142ZM90.4562 85.8975C90.4562 85.8975 90.5172 85.8517 90.5477 85.8212C91.4626 85.8822 92.6216 85.5772 93.4146 85.0282C92.9876 85.5315 92.3624 86.0195 91.7981 86.1567C91.6304 86.2025 91.3711 86.2482 91.1271 86.2482C90.8374 86.2482 90.5477 86.172 90.4562 85.9127V85.8975ZM85.9118 91.6466C85.9118 91.6466 85.9728 91.5856 86.0033 91.5398C87.4825 90.5943 88.8397 88.6729 88.8854 86.8582C89.0684 87.2394 89.1294 87.6817 89.0837 88.0934C88.9465 89.3134 87.2995 91.6618 86.0948 91.6618C86.0338 91.6618 85.9575 91.6618 85.8965 91.6466H85.9118ZM82.8619 90.3046C82.9686 90.2741 83.0754 90.2436 83.1669 90.2284C84.0971 90.1826 84.9968 89.8471 85.7898 89.3134C86.1253 89.0999 86.5218 88.8254 86.8573 88.5051C86.1405 89.5116 85.1188 90.5486 83.8988 90.5486C83.5633 90.5486 83.2126 90.4723 82.8466 90.2894L82.8619 90.3046ZM80.8947 88.5966C81.2149 88.5661 81.5199 88.5204 81.8249 88.4899C82.7399 88.3679 83.6243 88.2002 84.3258 87.8647C83.9293 88.3679 82.8619 88.8254 81.9011 88.8254C81.5352 88.8254 81.1844 88.7491 80.8947 88.5966Z" fill="white"/>
</g>
<g clip-path="url(#clip1_168_1001)">
<path d="M304.98 60.9911C309.104 64.3312 315.816 64.0034 319.677 59.7412C323.053 56.0118 323.134 51.6471 321.618 47.344C326.753 42.4056 326.369 34.8853 321.436 30.6436C317.11 26.9347 310.681 26.9142 306.112 31.8116C301.988 30.0698 296.974 30.2543 293.356 34.332C289.616 38.5737 289.717 44.8645 292.911 48.7784C295.559 52.016 297.884 52.3028 300.714 53.0815C301.119 55.7659 301.867 58.4707 304.96 60.9911H304.98ZM302.857 50.7455C301.119 50.7455 298.329 49.1677 297.015 46.9751C295.175 43.8809 296.267 39.6597 298.955 37.4672C301.078 35.7254 303.868 35.5 306.476 36.668C309.549 33.5534 313.491 33.2255 316.483 35.6844C320.183 38.7172 320.203 43.5531 316.847 46.9956C316.948 47.7948 317.373 48.348 317.474 49.0652C318.262 54.7618 311.672 59.8026 306.577 56.688C304.394 55.356 302.958 52.6717 302.857 50.766V50.7455Z" fill="white"/>
<path d="M301.361 59.1058C300.229 57.405 299.987 55.7043 299.683 53.983C298.005 53.6756 296.328 53.4502 294.629 52.2822C293.174 53.8601 291.273 55.4584 290.121 57.0362C291.617 59.2288 294.508 61.8721 296.59 63.7778C298.187 62.5688 299.785 60.6222 301.382 59.1058H301.361Z" fill="white"/>
<path d="M276.474 92.2199C279.648 89.3101 285.329 95.2116 287.714 98.5926C287.856 95.8673 287.937 93.0395 287.795 89.8839C287.755 88.6544 287.795 87.138 287.714 85.4783C287.654 84.1258 287.714 81.7898 287.007 80.9907C286.825 80.9087 286.643 80.9087 286.481 80.9907C283.671 85.2733 279.365 87.6503 275.767 85.5602C273.543 87.8143 271.339 90.0478 269.115 92.3018C270.409 94.8018 269.034 98.2238 266.467 100.211C265.497 100.97 263.778 100.908 263.637 102.363C264.466 103.121 265.598 103.162 266.467 103.265C267.417 103.367 268.428 103.408 269.398 103.347C267.518 99.4738 275.827 100.048 273.482 103.715C275.099 103.961 276.737 104.105 278.354 104.166C279.931 104.228 281.65 104.412 283.226 103.715C278.819 102.834 272.754 95.6419 276.494 92.2199H276.474Z" fill="white"/>
<path d="M295.072 64.2085C293.293 62.4052 291.534 60.6225 289.755 58.8193C289.634 58.7373 289.513 58.8603 289.391 59.0037C281.366 67.1387 273.4 75.2123 265.213 83.5112C263.191 85.5808 258.359 89.5152 258.218 91.6872C258.117 93.2241 260.644 96.0724 262.382 96.0929C264.505 96.0929 268.447 91.1954 270.53 89.0848C278.838 80.6629 287.35 72.0361 295.072 64.2085Z" fill="white"/>
<path d="M267.175 79.5563C265.841 79.0441 264.749 77.2203 264.688 76.1548C263.01 76.2982 261.332 76.7695 259.634 77.5072C259.109 79.1465 258.927 80.8063 259.19 82.4456C260.403 82.7735 261.616 82.8759 262.828 84.1464C264.223 82.63 266.083 81.0932 267.175 79.5768V79.5563Z" fill="white"/>
</g>
<defs>
<clipPath id="clip0_168_1001">
<rect width="70.4531" height="73.1065" fill="white" transform="translate(27.9492 27.9797)"/>
</clipPath>
<clipPath id="clip1_168_1001">
<rect width="67.0982" height="76.2479" fill="white" transform="translate(258.219 27.9797)"/>
</clipPath>
</defs>
</svg>
