<svg width="1015" height="366" viewBox="0 0 1015 366" fill="none" xmlns="http://www.w3.org/2000/svg">
<path d="M752.631 187.995C716.92 187.995 696.949 169.039 696.949 144.837C696.949 118.943 717.936 101.68 750.939 101.68C791.896 101.68 799.343 129.774 799.343 142.468H721.151C721.151 162.27 733.506 178.348 758.724 178.348C785.465 178.348 793.419 165.654 795.281 156.177H801.035C799.682 171.07 786.311 187.995 752.631 187.995ZM764.648 135.36C770.741 135.36 774.125 132.313 774.125 126.728C774.125 120.635 767.863 107.773 750.769 107.773C735.368 107.773 722.167 117.927 721.151 135.36H764.648Z" fill="white"/>
<path d="M631.609 184.272V180.887H633.979C645.657 180.887 648.365 178.179 648.365 167.178V126.39C648.365 113.697 645.826 110.65 635.502 110.65H631.609V107.265C648.365 107.096 661.058 104.219 668.843 99.6494H670.874C670.028 108.789 670.028 117.928 670.028 124.359V167.178C670.028 178.179 673.075 180.887 685.937 180.887H686.784V184.272H631.609Z" fill="white"/>
<path d="M494.922 184.272V180.887H497.291C508.969 180.887 511.677 178.179 511.677 167.178V126.39C511.677 113.697 509.139 110.65 498.815 110.65H494.922V107.265C511.677 107.096 524.709 104.219 532.494 99.6494H534.525C533.679 108.45 532.833 117.928 532.833 124.19C542.48 107.435 557.543 101.68 574.637 101.68C585.976 101.68 596.3 104.896 602.901 112.681C607.64 118.266 608.824 125.375 608.824 135.36V167.178C608.824 178.179 611.363 180.887 621.856 180.887H623.718V184.272H570.236V180.887H571.252C585.13 180.887 587.161 178.179 587.161 167.178V138.914C587.161 131.468 586.484 126.221 583.776 122.328C580.391 117.42 573.621 114.374 564.99 114.374C552.296 114.374 540.449 120.974 533.341 135.529V167.178C533.341 178.179 536.387 180.887 549.25 180.887H550.773V184.272H494.922Z" fill="white"/>
<path d="M435.295 187.995C399.584 187.995 379.613 169.039 379.613 144.837C379.613 118.943 400.6 101.68 433.603 101.68C474.56 101.68 482.007 129.774 482.007 142.468H403.815C403.815 162.27 416.17 178.348 441.388 178.348C468.129 178.348 476.083 165.654 477.945 156.177H483.7C482.346 171.07 468.975 187.995 435.295 187.995ZM447.312 135.36C453.405 135.36 456.789 132.313 456.789 126.728C456.789 120.635 450.527 107.773 433.433 107.773C418.032 107.773 404.831 117.927 403.815 135.36H447.312Z" fill="white"/>
<path d="M287.828 187.996C243.316 187.996 213.359 162.101 213.359 125.036C213.359 89.8331 245.347 62.2461 286.304 62.2461C299.675 62.2461 313.553 65.1233 328.108 70.3699C340.294 74.7703 344.356 78.4937 344.356 64.277H349.433V107.942H341.309C337.924 89.8331 319.815 69.1852 291.382 69.1852C259.056 69.1852 240.777 95.9259 240.777 124.021C240.777 146.7 256.179 181.226 293.582 181.226C306.614 181.226 317.953 176.825 326.923 171.748V146.53C326.923 137.899 322.015 132.991 313.384 132.991H299.675V129.267H370.42V132.991H364.327C354.172 132.991 351.295 136.714 351.295 154.146C351.295 159.732 351.972 168.025 352.818 174.456C337.417 183.087 311.353 187.996 287.828 187.996Z" fill="white"/>
<path d="M640.295 0.000250175L642.678 3.59598C647.3 11.0942 647.941 19.8194 643.985 27.7777C640.628 34.5261 630.751 41.3086 636.646 49.7185C641.815 57.0974 663.123 60.4546 657.647 72.6392C653.469 81.9267 633.912 87.1925 625.813 94.1028C622.199 97.1788 619.132 101.72 622.9 106.134C623.523 106.867 623.779 107.063 625.036 108.358C613.775 102.998 610.4 93.7449 621.618 85.6758C627.633 81.3473 642.764 76.4479 631.982 67.4927C625.232 61.886 611.392 57.4808 609.546 47.452C606.769 32.3533 626.779 26.7382 634.698 17.3654C638.851 12.449 640.773 6.45042 640.303 0.00877221L640.295 0.000250175Z" fill="white"/>
<path d="M645.938 41.3863C655.851 42.7986 656.996 43.9366 658.401 53.8502C659.814 43.9366 660.952 42.7917 670.865 41.3863C660.952 39.974 659.814 38.8359 658.401 28.9224C656.989 38.8359 655.851 39.9808 645.938 41.3863Z" fill="white"/>
<path d="M617.016 10.6888C622.017 11.4013 622.594 11.9754 623.303 16.9763C624.016 11.9754 624.59 11.3978 629.591 10.6888C624.59 9.9764 624.016 9.40229 623.303 4.40137C622.591 9.40229 622.017 9.97986 617.016 10.6888Z" fill="white"/>
<path d="M603.812 73.8777C610.564 74.8395 611.343 75.6146 612.301 82.3658C613.262 75.6146 614.037 74.8349 620.789 73.8777C614.037 72.9159 613.262 72.1409 612.301 65.3896C611.339 72.1409 610.564 72.9206 603.812 73.8777Z" fill="white"/>
<path d="M965.731 365.996C929.828 365.996 909.75 346.938 909.75 322.606C909.75 296.572 930.849 279.216 964.03 279.216C1005.21 279.216 1012.69 307.462 1012.69 320.223H934.082C934.082 340.132 946.504 356.297 971.857 356.297C998.742 356.297 1006.74 343.535 1008.61 334.006H1014.4C1013.03 348.98 999.592 365.996 965.731 365.996ZM977.812 313.077C983.938 313.077 987.341 310.014 987.341 304.399C987.341 298.273 981.045 285.341 963.86 285.341C948.375 285.341 935.103 295.551 934.082 313.077H977.812Z" fill="white"/>
<path d="M799.515 299.974C792.878 288.914 788.965 286.362 780.457 286.362V282.958H842.224V286.362H834.567C822.486 286.362 819.593 290.616 823.847 298.273L852.944 349.49L877.106 308.142C885.443 293.849 882.551 286.362 869.619 286.362H863.323V282.958H907.393V286.362C899.736 286.362 896.333 289.935 884.593 309.843L852.944 363.442H837.8L799.515 299.974Z" fill="white"/>
<path d="M724.09 362.252V358.848H726.472C738.213 358.848 740.935 356.126 740.935 345.066V304.058C740.935 291.296 738.383 288.234 728.003 288.234H724.09V284.83C740.935 284.66 753.697 281.768 761.524 277.173H763.566C762.715 286.362 762.715 295.55 762.715 302.016V345.066C762.715 356.126 765.778 358.848 778.71 358.848H779.561V362.252H724.09ZM750.974 267.475C744.338 267.475 739.064 261.519 739.064 253.862C739.064 246.205 744.338 240.25 750.974 240.25C757.611 240.25 762.885 246.205 762.885 253.862C762.885 261.519 757.611 267.475 750.974 267.475Z" fill="white"/>
<path d="M679.047 365.995C668.327 365.995 658.628 361.061 654.204 352.553C652.162 348.639 651.482 342.854 651.482 336.558V290.106H634.977V286.532C656.076 281.428 663.563 263.221 665.775 253.182H673.432V282.959H713.248V290.106H673.262V334.006C673.262 337.919 673.432 341.152 674.112 343.875C676.154 351.872 682.28 355.105 688.235 355.105C697.254 355.105 707.803 347.278 713.418 334.346L718.183 336.558C711.036 352.553 700.146 365.995 679.047 365.995Z" fill="white"/>
<path d="M578.921 365.996C543.188 365.996 521.578 348.64 521.578 322.606C521.578 294.87 545.74 279.216 581.813 279.216C612.441 279.216 623.502 294.019 623.502 302.868C623.502 308.993 621.119 315.119 611.931 315.119C604.274 315.119 600.19 312.226 600.19 303.888C600.19 299.294 599.339 286.362 577.9 286.362C561.395 286.362 546.081 297.763 546.081 318.522C546.081 341.153 560.544 356.297 584.706 356.297C610.229 356.297 619.588 343.195 620.949 332.985H626.735C625.033 349.49 610.059 365.996 578.921 365.996Z" fill="white"/>
<path d="M459.415 365.996C423.512 365.996 403.434 346.938 403.434 322.606C403.434 296.572 424.533 279.216 457.713 279.216C498.891 279.216 506.378 307.462 506.378 320.223H427.766C427.766 340.132 440.187 356.297 465.541 356.297C492.425 356.297 500.423 343.535 502.294 334.006H508.08C506.718 348.98 493.276 365.996 459.415 365.996ZM471.496 313.077C477.622 313.077 481.025 310.014 481.025 304.399C481.025 298.273 474.729 285.341 457.543 285.341C442.059 285.341 428.787 295.551 427.766 313.077H471.496Z" fill="white"/>
<path d="M337.207 362.252V358.848H339.589C351.33 358.848 354.053 356.126 354.053 345.066V262.88C354.053 250.119 351.5 247.056 341.121 247.056H337.207V243.653C355.584 243.653 367.665 240.93 375.492 235.996H377.534C376.173 245.184 375.832 254.372 375.832 260.838V345.066C375.832 356.126 378.895 358.848 391.827 358.848H393.529V362.252H337.207Z" fill="white"/>
<path d="M275.055 362.252V358.848H277.437C289.178 358.848 291.9 356.126 291.9 345.066V262.88C291.9 250.119 289.348 247.056 278.968 247.056H275.055V243.653C293.432 243.653 305.513 240.93 313.34 235.996H315.382C314.02 245.184 313.68 254.372 313.68 260.838V345.066C313.68 356.126 316.743 358.848 329.675 358.848H331.376V362.252H275.055Z" fill="white"/>
<path d="M208.526 365.996C173.985 365.996 151.184 348.64 151.184 322.606C151.184 296.572 173.985 279.216 208.526 279.216C243.068 279.216 265.869 296.572 265.869 322.606C265.869 348.64 243.068 365.996 208.526 365.996ZM208.526 359.7C229.796 359.7 241.707 346.428 241.707 322.606C241.707 298.784 229.796 285.512 208.526 285.512C187.257 285.512 175.346 298.784 175.346 322.606C175.346 346.428 187.257 359.7 208.526 359.7Z" fill="white"/>
<path d="M72.9969 365.825C29.0967 365.825 0 342.173 0 302.697C0 267.304 30.6281 239.739 76.7404 239.739C87.8005 239.739 100.903 243.312 106.858 245.354C116.557 248.587 127.447 256.414 127.447 241.951H132.211V287.212H124.724C121.151 262.199 102.774 247.906 79.9733 247.906C47.8138 247.906 28.7564 269.686 28.7564 302.356C28.7564 331.963 49.0049 355.275 82.866 355.275C103.285 355.275 125.065 343.874 131.531 321.584H137.826C131.531 350.851 105.156 365.825 72.9969 365.825Z" fill="white"/>
</svg>
